<?xml version="1.0" encoding="utf-8"?>
<!-- Generator: Adobe Illustrator 28.4.1, SVG Export Plug-In . SVG Version: 6.00 Build 0)  -->
<svg version="1.0" id="katman_1" xmlns="http://www.w3.org/2000/svg" xmlns:xlink="http://www.w3.org/1999/xlink" x="0px" y="0px"
	 viewBox="0 0 602.48 547.36" style="enable-background:new 0 0 602.48 547.36;" xml:space="preserve">
<style type="text/css">
	.st0{fill:#015B63;}
	.st1{fill:#17231F;}
	.st2{fill:#4AB901;}
</style>
<path class="st0" d="M383.93,279.08l-41.49-62.62c-0.76-1.15-1.77-1.44-3.04-0.89l-18.96,8.29c-5.07-8.22-10.09-16.49-15.06-24.8
	c-1.1-1.83-2.53-3.54-3.84-5.24c-0.15-0.2-0.44-0.24-0.64-0.09c-0.05,0.04-0.09,0.08-0.12,0.13l-19.53,31.81
	c-5.18-1.96-10.21-4.16-15.09-6.59c-1.67-0.84-3.31-1.29-4.92-1.36c-0.77-0.03-1.5,0.34-1.94,0.98l-40.9,60.29l-62.82-69.82
	c-0.24-0.27-0.65-0.28-0.92-0.04c0,0,0,0,0,0c-1,0.95-1.9,1.98-2.71,3.09c-17.72,24.56-36.14,48.59-53.26,72.28
	c-3.89,5.39-7.82,10.77-11.78,16.16c-24.11,32.78-47.85,65.24-71.22,97.39c-0.19,0.25-0.54,0.31-0.8,0.13
	c-0.09-0.07-0.17-0.17-0.2-0.28c-8.81-26.85-14.14-56-14.64-84.65c-1.15-65.46,16.08-124.81,51.7-178.06
	c37.81-56.52,92.96-99.26,158.33-120.54c54.36-17.7,113.27-19.75,168.39-4.03c40.26,11.48,77.1,30.58,110.52,57.29
	c5.17,4.14,10.12,8.41,14.85,12.8c48.63,45.23,79.69,100.51,93.17,165.84c1.35,6.57,2.4,12.93,3.13,19.08
	c4.74,39.61,2.28,78.15-7.39,115.64c-1.49,5.79-3.2,11.46-5.13,17.01c-0.08,0.23-0.34,0.36-0.57,0.28
	c-0.08-0.03-0.15-0.08-0.21-0.15c-2.72-3.49-5.28-6.91-7.67-10.24c-43.63-60.76-87.09-120.21-130.37-178.35
	c-0.18-0.24-0.52-0.3-0.76-0.12c-0.03,0.02-0.05,0.04-0.08,0.07L383.93,279.08z M320.51,24.95c0.01-0.46-0.35-0.84-0.81-0.85
	l-0.24-0.01c-0.46-0.01-0.84,0.35-0.85,0.81c0,0,0,0,0,0l-0.03,1.34c-0.01,0.46,0.35,0.84,0.81,0.85l0.24,0
	c0.46,0.01,0.84-0.35,0.85-0.81c0,0,0,0,0,0L320.51,24.95z M361.29,30.83c1.58-0.09,2.78-1.67,2.67-3.53
	c-0.11-1.86-1.48-3.29-3.06-3.2c-1.58,0.09-2.78,1.67-2.67,3.53C358.34,29.48,359.71,30.92,361.29,30.83z M250.25,55.19
	c0.95-0.25,0.95-0.51,0-0.76c-5.91-1.55-11.91-3.08-17.19-6.08C227.17,45.01,224.4,33,222.9,26.9c-0.05-0.22-0.26-0.35-0.47-0.31
	c-0.15,0.03-0.27,0.15-0.31,0.3c-1.54,6.2-4.25,18.79-10.37,21.86c-5.42,2.72-11.03,4.7-16.82,5.94c-1.19,0.25-1.19,0.52-0.01,0.81
	c4.61,1.12,9.71,2.43,13.93,4.34c4.85,2.19,8.18,6.01,9.99,11.44c1.26,3.77,2.51,7.54,3.75,11.33c0.21,0.64,0.42,0.64,0.63,0
	c1.05-3.2,2.02-6.45,2.91-9.74c1.61-5.95,3.97-9.99,9.62-12.62C239.79,58.37,244.63,56.68,250.25,55.19z M406.03,38.63
	c0.87-0.28,1.27-1.48,0.88-2.67s-1.4-1.93-2.28-1.65c-0.87,0.28-1.27,1.48-0.88,2.67S405.16,38.91,406.03,38.63z M263.1,39.12
	c0-0.68-0.55-1.23-1.23-1.23s-1.23,0.55-1.23,1.23c0,0,0,0,0,0c0,0.68,0.55,1.23,1.23,1.23c0,0,0,0,0,0
	C262.55,40.35,263.1,39.8,263.1,39.12z M370.95,132.3c6.71-32.13-13.98-63.63-46.23-70.37c-32.24-6.74-63.82,13.85-70.53,45.98
	c0,0,0,0,0,0c-6.71,32.13,13.98,63.63,46.23,70.37c0,0,0,0,0,0C332.66,185.01,364.24,164.43,370.95,132.3
	C370.95,132.3,370.95,132.3,370.95,132.3z M421.4,125.09c2.88-8.85,3.21-19.06,13.41-23.12c3.98-1.59,8.08-2.95,12.31-4.1
	c0.17-0.05,0.32-0.13,0.44-0.26c0.32-0.33,0.26-0.55-0.19-0.65c-3.25-0.73-6.42-1.64-9.53-2.73c-5.97-2.09-9.64-3.46-11.99-8.99
	c-1.83-4.33-3.22-8.84-4.16-13.52c-0.31-1.51-0.68-1.53-1.13-0.06c-0.96,3.18-1.93,6.26-2.92,9.24c-1.79,5.43-3.44,9.34-8.55,11.34
	c-4.91,1.92-9.73,3.48-14.72,5.13c-0.17,0.05-0.26,0.23-0.21,0.4c0.04,0.12,0.14,0.21,0.26,0.23c5.33,0.95,10.47,2.79,15.42,5.54
	c6.85,3.81,9.02,14.43,10.9,21.53C420.94,125.82,421.16,125.83,421.4,125.09z M385.43,74.4c-0.14-0.57-0.71-0.92-1.28-0.78
	l-0.19,0.05c-0.57,0.14-0.92,0.71-0.78,1.28l0.17,0.72c0.14,0.57,0.71,0.92,1.28,0.78l0.19-0.05c0.57-0.14,0.92-0.71,0.78-1.28
	L385.43,74.4z M467.4,84.17c0.62,0,1.13-0.7,1.12-1.56c0-0.86-0.51-1.56-1.14-1.56c-0.62,0-1.13,0.7-1.12,1.56c0,0,0,0,0,0
	C466.27,83.48,466.78,84.17,467.4,84.17C467.4,84.17,467.4,84.17,467.4,84.17z M153.33,90.84c2.01-0.21,3.45-2.22,3.21-4.48l0,0
	c-0.24-2.26-2.06-3.93-4.07-3.71h0c-2.01,0.21-3.45,2.22-3.21,4.48l0,0C149.5,89.39,151.32,91.05,153.33,90.84
	C153.33,90.84,153.33,90.84,153.33,90.84z M207.28,209.68c18.33,7.61,36.63,7.25,54.89-1.07c9-4.1,16.21-9.93,22.77-16.55
	c0.85-0.87,0.69-1.16-0.49-0.88c-2.58,0.62-5.05,1.37-7.73,1.7c-20.01,2.45-38.44-1.77-55.29-12.66
	c-20.34-13.16-34.05-34.92-37.37-59.49c-1.3-9.62-1.48-18.8,0.31-27.2c0.21-0.99-0.01-1.09-0.64-0.3
	c-11.31,14.05-18.91,30.24-19.81,47.52c-0.71,13.81,2.37,26.63,9.24,38.46C181.5,193.54,192.87,203.7,207.28,209.68z M205.08,101.53
	c2.01-0.06,3.6-1.88,3.53-4.08c0,0,0,0,0,0c-0.07-2.19-1.75-3.92-3.77-3.86h0c-2.01,0.06-3.6,1.88-3.53,4.08c0,0,0,0,0,0
	C201.38,99.86,203.07,101.59,205.08,101.53C205.08,101.53,205.08,101.53,205.08,101.53z M128.96,102.58
	c-0.08-0.04-0.14-0.1-0.17-0.18l-2.82-6.92c-0.07-0.17-0.26-0.25-0.43-0.18c-0.08,0.03-0.15,0.1-0.18,0.18l-2.86,6.9
	c-0.04,0.08-0.1,0.14-0.18,0.17l-6.92,2.82c-0.17,0.07-0.25,0.26-0.18,0.43c0.03,0.08,0.1,0.15,0.18,0.18l6.9,2.86
	c0.08,0.04,0.14,0.1,0.17,0.18l2.82,6.92c0.07,0.17,0.26,0.25,0.43,0.18c0.08-0.03,0.15-0.1,0.18-0.18l2.86-6.9
	c0.04-0.08,0.1-0.14,0.18-0.17l6.92-2.82c0.17-0.07,0.25-0.26,0.18-0.43c-0.03-0.08-0.1-0.15-0.18-0.18L128.96,102.58z
	 M506.36,120.11c0.5-0.07,0.83-0.7,0.72-1.39l0,0c-0.1-0.69-0.59-1.2-1.1-1.12l0,0c-0.5,0.07-0.83,0.7-0.72,1.39v0
	C505.37,119.68,505.86,120.18,506.36,120.11z M471.48,133.38c1.92-0.49,3.04-2.56,2.52-4.64c-0.53-2.08-2.51-3.37-4.42-2.88
	c-1.92,0.49-3.04,2.56-2.52,4.64S469.56,133.87,471.48,133.38z M108.18,147.3c-0.09-0.03-0.17-0.11-0.2-0.2l-3.79-10.2
	c-0.07-0.17-0.27-0.26-0.44-0.19c-0.08,0.03-0.15,0.1-0.19,0.19l-3.83,10.19c-0.03,0.09-0.11,0.17-0.2,0.2l-10.2,3.79
	c-0.17,0.07-0.26,0.27-0.19,0.44c0.03,0.09,0.1,0.15,0.19,0.19l10.19,3.83c0.09,0.03,0.17,0.11,0.2,0.2l3.79,10.2
	c0.07,0.17,0.27,0.26,0.44,0.19c0.09-0.03,0.15-0.1,0.19-0.19l3.83-10.19c0.03-0.09,0.11-0.17,0.2-0.2l10.2-3.79
	c0.17-0.07,0.26-0.27,0.19-0.44c-0.03-0.09-0.1-0.15-0.19-0.19L108.18,147.3z M222.61,144.49c1.21-0.26,1.94-1.62,1.63-3.04
	c0,0,0,0,0,0c-0.31-1.42-1.54-2.36-2.75-2.1c-1.21,0.26-1.94,1.62-1.63,3.04c0,0,0,0,0,0C220.17,143.81,221.4,144.75,222.61,144.49z
	 M480.82,168.86c9.53,2.78,17.95,4.22,21.51,15.12c1.17,3.57,2.34,7.23,3.51,11c0.05,0.17,0.24,0.27,0.41,0.22
	c0.04-0.01,0.07-0.03,0.1-0.05c0.14-0.11,0.23-0.25,0.27-0.42c0.97-4.39,2.16-8.58,3.55-12.59c1.61-4.61,4.86-7.84,9.74-9.68
	c3.56-1.35,7.22-2.59,10.97-3.72c1.33-0.4,1.32-0.75-0.04-1.05c-4.5-1-8.73-2.3-12.7-3.91c-5.32-2.15-7.54-5.79-9.19-11.08
	c-1.01-3.23-1.88-6.4-2.61-9.51c-0.04-0.18-0.22-0.3-0.4-0.26c-0.07,0.02-0.14,0.05-0.19,0.11c-0.25,0.29-0.43,0.6-0.54,0.95
	c-1.39,4.5-2.87,8.81-4.46,12.93c-1.69,4.4-5.11,6.09-9.33,7.6c-3.55,1.29-7.09,2.46-10.61,3.52
	C479.89,168.32,479.89,168.59,480.82,168.86z M392.39,158.39c0.55-0.04,0.95-0.72,0.89-1.52v0c-0.05-0.8-0.54-1.43-1.08-1.39
	c-0.55,0.04-0.95,0.72-0.89,1.52c0,0,0,0,0,0C391.36,157.8,391.84,158.42,392.39,158.39z M434.42,168.28
	c2.2-0.18,3.82-2.23,3.63-4.58c-0.19-2.35-2.13-4.11-4.33-3.93c0,0,0,0,0,0c-2.2,0.18-3.82,2.23-3.63,4.58
	C430.29,166.7,432.23,168.46,434.42,168.28L434.42,168.28z M142.2,163.98c0-0.52-0.41-0.94-0.93-0.95c0,0,0,0,0,0l-0.4,0
	c-0.52,0-0.94,0.41-0.95,0.93c0,0,0,0,0,0l0,0.72c0,0.52,0.41,0.94,0.93,0.95c0,0,0,0,0,0l0.4,0c0.52,0,0.94-0.41,0.95-0.93
	c0,0,0,0,0,0L142.2,163.98z M253.28,167.69c0.69-0.16,1.09-0.99,0.89-1.86c-0.2-0.87-0.92-1.45-1.61-1.3
	c-0.69,0.16-1.09,0.99-0.89,1.86C251.87,167.27,252.59,167.85,253.28,167.69z M59.79,176.39c0.54-0.2,0.76-0.97,0.48-1.71l0,0
	c-0.28-0.74-0.94-1.17-1.49-0.97c0,0,0,0,0,0c-0.54,0.2-0.76,0.97-0.48,1.71c0,0,0,0,0,0C58.58,176.16,59.24,176.59,59.79,176.39
	L59.79,176.39z M378.86,185.44c0.02-0.46-0.33-0.85-0.79-0.87l-0.58-0.03c-0.46-0.02-0.85,0.33-0.87,0.79l-0.07,1.42
	c-0.02,0.46,0.33,0.85,0.79,0.87c0,0,0,0,0,0l0.58,0.03c0.46,0.02,0.85-0.33,0.87-0.79L378.86,185.44z M126.79,200.99
	c1.91-0.57,2.95-2.77,2.31-4.9c-0.64-2.13-2.71-3.39-4.63-2.82h0c-1.91,0.57-2.95,2.77-2.31,4.9
	C122.81,200.3,124.88,201.57,126.79,200.99C126.79,200.99,126.79,200.99,126.79,200.99z M400.76,208.3
	c-0.08-0.03-0.15-0.1-0.18-0.18l-4.42-11.96c-0.06-0.16-0.24-0.24-0.4-0.18c-0.08,0.03-0.15,0.1-0.18,0.18l-4.46,11.94
	c-0.03,0.08-0.1,0.15-0.18,0.18l-11.96,4.42c-0.16,0.06-0.24,0.24-0.18,0.4c0.03,0.08,0.1,0.15,0.18,0.18l11.94,4.46
	c0.08,0.03,0.15,0.1,0.18,0.18l4.42,11.96c0.06,0.16,0.24,0.24,0.4,0.18c0.08-0.03,0.15-0.1,0.18-0.18l4.46-11.94
	c0.03-0.08,0.1-0.15,0.18-0.18l11.96-4.42c0.16-0.06,0.24-0.24,0.18-0.4c-0.03-0.08-0.1-0.15-0.18-0.18L400.76,208.3z
	 M471.21,204.95c1.98-0.13,3.47-2.01,3.33-4.21c0,0,0,0,0,0c-0.14-2.2-1.86-3.88-3.84-3.75h0c-1.98,0.13-3.47,2.01-3.33,4.21
	c0,0,0,0,0,0C467.51,203.4,469.23,205.08,471.21,204.95C471.21,204.95,471.21,204.95,471.21,204.95z M553.1,220.03
	c-0.09-0.03-0.16-0.1-0.19-0.19L547,203.95c-0.06-0.17-0.25-0.25-0.41-0.19c-0.09,0.03-0.16,0.1-0.19,0.19l-5.85,15.91
	c-0.03,0.09-0.1,0.16-0.19,0.19l-15.89,5.91c-0.17,0.06-0.25,0.25-0.19,0.41c0.03,0.09,0.1,0.16,0.19,0.19l15.91,5.85
	c0.09,0.03,0.16,0.1,0.19,0.19l5.91,15.89c0.06,0.17,0.25,0.25,0.41,0.19c0.09-0.03,0.16-0.1,0.19-0.19l5.85-15.91
	c0.03-0.09,0.1-0.16,0.19-0.19l15.89-5.91c0.17-0.06,0.25-0.25,0.19-0.41c-0.03-0.09-0.1-0.16-0.19-0.19L553.1,220.03z M77.01,232.9
	c3.82-1.79,7.97-3.24,12.45-4.35c1.22-0.31,1.23-0.64,0.02-1c-3.43-1.04-7.11-2.23-11.04-3.57c-4.25-1.45-7.15-4.18-8.69-8.18
	c-1.33-3.46-2.45-7.23-3.37-11.31c-0.35-1.59-0.74-1.6-1.15-0.02c-0.95,3.64-2.11,7.33-3.49,11.08c-1.47,3.98-4.05,6.68-7.76,8.1
	c-3.75,1.44-7.73,2.8-11.94,4.09c-1.29,0.39-1.28,0.73,0.05,1c7.92,1.64,17,4.61,19.92,13.13c1.23,3.6,2.36,7.25,3.39,10.96
	c0.42,1.52,0.77,1.5,1.04-0.06C67.75,245.25,69.53,236.42,77.01,232.9z M204.95,229.86c1.79-0.26,2.99-2.13,2.69-4.16c0,0,0,0,0,0
	c-0.3-2.03-1.99-3.47-3.78-3.2c-1.79,0.26-2.99,2.13-2.69,4.16C201.47,228.69,203.16,230.12,204.95,229.86z M118.41,237.23
	c0.55-0.22,0.76-0.99,0.47-1.7c-0.29-0.72-0.97-1.12-1.53-0.89c0,0,0,0,0,0c-0.55,0.22-0.76,0.99-0.47,1.7
	C117.17,237.05,117.86,237.45,118.41,237.23C118.41,237.23,118.41,237.23,118.41,237.23z M497.36,238.96
	c0.62,0.11,1.24-0.42,1.38-1.18c0.14-0.77-0.25-1.48-0.87-1.59l0,0c-0.62-0.11-1.24,0.42-1.38,1.18
	C496.35,238.13,496.74,238.84,497.36,238.96C497.36,238.96,497.36,238.96,497.36,238.96z M514.96,271.43
	c0.74-0.28,1.08-1.22,0.75-2.1c0,0,0,0,0,0c-0.33-0.88-1.2-1.36-1.95-1.08s-1.08,1.22-0.75,2.1c0,0,0,0,0,0
	C513.35,271.23,514.22,271.71,514.96,271.43z M81.3,275.74c-0.06-1.13-1.03-2-2.16-1.94l-1.46,0.08c-1.13,0.06-2,1.03-1.94,2.16
	c0,0,0,0,0,0l0.11,2.12c0.06,1.13,1.03,2,2.16,1.94h0l1.46-0.08c1.13-0.06,2-1.03,1.94-2.16c0,0,0,0,0,0L81.3,275.74z
	 M568.16,289.87c-0.09-0.03-0.17-0.11-0.2-0.2l-3.18-8.83c-0.06-0.18-0.25-0.27-0.43-0.21c-0.1,0.03-0.17,0.11-0.21,0.2l-3.46,8.72
	c-0.03,0.09-0.11,0.17-0.2,0.2l-8.83,3.18c-0.18,0.06-0.27,0.25-0.21,0.43c0.03,0.1,0.11,0.17,0.2,0.21l8.72,3.46
	c0.09,0.03,0.17,0.11,0.2,0.2l3.18,8.83c0.06,0.18,0.25,0.27,0.43,0.21c0.1-0.03,0.17-0.11,0.21-0.2l3.46-8.72
	c0.03-0.09,0.11-0.17,0.2-0.2l8.83-3.18c0.18-0.06,0.27-0.25,0.21-0.43c-0.03-0.1-0.11-0.17-0.2-0.21L568.16,289.87z M30.48,288.42
	c0.72,0.18,1.49-0.4,1.72-1.31c0,0,0,0,0,0c0.23-0.9-0.17-1.79-0.89-1.97c0,0,0,0,0,0c-0.72-0.18-1.49,0.4-1.72,1.31c0,0,0,0,0,0
	C29.36,287.35,29.76,288.24,30.48,288.42C30.48,288.42,30.48,288.42,30.48,288.42z M44.92,302.69c0.92,0.09,1.75-0.74,1.86-1.86
	c0,0,0,0,0,0c0.11-1.12-0.55-2.09-1.47-2.18c0,0,0,0,0,0c-0.92-0.09-1.75,0.74-1.86,1.86c0,0,0,0,0,0
	C43.34,301.63,44,302.6,44.92,302.69L44.92,302.69z M582.61,341.84c1.32-0.22,2.19-1.63,1.94-3.15c-0.25-1.53-1.52-2.59-2.84-2.37
	c0,0,0,0,0,0c-1.32,0.22-2.19,1.63-1.94,3.15C580.02,341,581.29,342.06,582.61,341.84L582.61,341.84z M21.52,349.31
	c0.64-0.11,1.05-0.86,0.92-1.67l0,0c-0.14-0.82-0.77-1.39-1.41-1.29c0,0,0,0,0,0c-0.64,0.11-1.05,0.86-0.92,1.67c0,0,0,0,0,0
	C20.25,348.84,20.88,349.42,21.52,349.31C21.52,349.31,21.52,349.31,21.52,349.31z"/>
<path class="st1" d="M383.93,279.08l11.99,17.94l17.96,27.14l15.13,22.63l47.91,70.47l-49.97,62.46c-0.21,0.25-0.15,0.38,0.18,0.39
	l20.2,0.44c1.3,0.03,1.41,0.41,0.34,1.15c-1.75,1.21-3.42,2.5-5.01,3.89c-5.35,4.67-10.55,9.22-15.58,13.66
	c-2.82,2.49-6.05,4.63-8.67,7.35c-0.38,0.39-0.76,0.39-1.13-0.02c-26.93-29.32-53.35-58.54-79.26-87.65
	c-12.05-13.53-24.15-27.05-36.31-40.56c-0.27-0.31-0.55-0.31-0.82,0c-21.4,23.81-42.81,47.71-64.24,71.69
	c-12.63,14.13-25.56,27.88-38.38,42.08c-4.54,5.03-9.38,9.74-13.69,14.85c-0.25,0.29-0.51,0.31-0.8,0.06
	c-9.59-8.37-19.94-16.63-29.22-25.88c-0.13-0.14-0.13-0.35,0.01-0.48c0.06-0.06,0.14-0.09,0.22-0.09l20.79-0.31
	c0.18-0.01,0.32-0.15,0.31-0.33c0-0.07-0.03-0.14-0.07-0.19l-51.06-64.43l48.99-70.09l14.93-22.07l17.98-26.47l11.74-17.72
	l40.9-60.29c0.44-0.64,1.17-1.01,1.94-0.98c1.61,0.07,3.25,0.52,4.92,1.36c4.88,2.43,9.91,4.63,15.09,6.59
	c-1.68,2.83-3.34,5.64-4.98,8.43c-29.1,49.55-57.78,97.94-86.05,145.16c-3.45,5.77-7.19,11.33-11.2,16.7
	c-0.09,0.11-0.08,0.21,0.03,0.3h0.01c0.11,0.09,0.2,0.08,0.29-0.02c3.48-3.94,6.82-7.46,10.01-10.57
	c36.17-35.17,73.31-70.64,111.43-106.41c0.24-0.23,0.62-0.24,0.86-0.01c35.85,33.08,71.55,67.2,111.64,105.84
	c3.13,3.02,5.86,6.24,8.56,9.6c0.09,0.11,0.2,0.13,0.31,0.04h0.01c0.11-0.08,0.12-0.18,0.05-0.29c-2.11-3.2-4.36-6.37-6.29-9.61
	c-31.96-53.57-63.79-107.22-95.49-160.97l18.96-8.29c1.27-0.55,2.28-0.26,3.04,0.89L383.93,279.08z"/>
<path class="st2" d="M525.77,410.35c0.21-1.03-0.04-2.08-0.75-3.15c-8.09-12.1-15.97-24.08-23.66-35.93
	c-0.14-0.21-0.42-0.27-0.64-0.14c-0.07,0.05-0.13,0.11-0.16,0.19c-2.03,4.26-4.34,8.51-6.93,12.75
	c-4.29,7.01-8.04,13.62-11.25,19.83c-0.93,1.79-1.27,3.36-1.03,4.73c0.49,2.79,0.69,4.73,0.62,5.84l-5.05,2.79l-47.91-70.47
	c0.61-1.55,2.13-4.36,4.55-8.44c7.61-12.81,15.28-25.53,23.03-38.15c0.32-0.53,0.31-1.2-0.04-1.7l-10.1-14.87
	c-0.12-0.18-0.37-0.22-0.54-0.1c-0.03,0.02-0.06,0.05-0.08,0.08l-31.95,40.55l-17.96-27.14l49.51-58.05
	c0.62-0.72,1.21-0.7,1.78,0.06c14.97,20.22,28.17,38.2,39.59,53.95c30.59,42.18,61.58,85.03,92.97,128.56
	c0.41,0.56,0.46,1.32,0.14,1.94l-18.72,36.08c-0.22,0.43-0.75,0.59-1.17,0.37c-0.13-0.07-0.24-0.16-0.32-0.28L525.77,410.35z"/>
<path class="st2" d="M206.66,296.71l-17.98,26.47l-31.14-39.26c-0.11-0.14-0.31-0.16-0.46-0.05c-0.02,0.02-0.05,0.04-0.06,0.07
	l-10.13,14.15c-0.5,0.7-0.54,1.64-0.09,2.38l26.95,44.78l-48.99,70.09l-3.79-1.91c-0.14-1.12-0.68-2.31-1.62-3.57
	c-0.31-0.42-0.35-0.87-0.11-1.34c0.19-0.39,0.49-0.53,0.91-0.42c0.94,0.24,1.79,0.28,2.56,0.13c0.32-0.07,0.53-0.37,0.46-0.69
	c-0.02-0.08-0.05-0.16-0.1-0.23c-1.14-1.53-2.4-2.86-3.42-4.53c-6.03-9.89-12.06-20.22-18.1-30.99c-0.29-0.53-0.61-0.54-0.94-0.04
	c-6.89,10.23-13.74,20.6-20.55,31.09c-1.16,1.79-2.21,3.71-3.15,5.76c-0.09,0.21-0.09,0.41,0.01,0.62c0.1,0.2,0.24,0.22,0.43,0.06
	L42.31,459.1c-0.15,0.22-0.46,0.28-0.68,0.12c-0.07-0.05-0.12-0.11-0.16-0.18l-18.92-36.45c-0.18-0.35-0.15-0.77,0.08-1.09
	c20.14-27.73,40.53-55.87,61.18-84.43c3.91-5.41,7.85-10.8,11.8-16.16c18.9-25.6,39.59-54.59,59.87-81.78
	c0.38-0.52,1.12-0.63,1.64-0.24c0.07,0.05,0.14,0.12,0.2,0.18L206.66,296.71z"/>
<path class="st1" d="M120.97,413.43l-6.2-3.46c-0.79-0.44-0.95-0.27-0.47,0.5c3.21,5.24,6.44,10.06,9.69,14.47
	c8.71,11.82,17.5,23.52,26.38,35.1c3.81,4.97,7.45,9.91,10.94,14.82c0.12,0.17,0.08,0.41-0.09,0.53c-0.07,0.05-0.16,0.07-0.24,0.07
	c-1.15-0.06-2.22-0.36-3.37-0.33c-6.63,0.17-13.39,0.24-20.27,0.22c-2.31-0.01-2.59,0.75-0.85,2.26
	c7.67,6.65,15.57,13.58,23.42,19.98c5.73,4.67,11.4,9.53,16.99,14.6c0.16,0.14,0.17,0.39,0.03,0.55c0,0-0.01,0.01-0.01,0.01
	c-4.22,4.24-8.73,9.29-13.71,12.64c-0.58,0.39-0.52,0.58,0.18,0.58l36.28-0.27l53.27,0.04l37.53,0.05c0.29,0,0.54-0.21,0.59-0.49
	c2.5-13.11,4.34-26.26,5.53-39.45c0.74-8.2,1.64-16.34,2.71-24.42l1.39-2.69c0.17-0.32,0.57-0.45,0.89-0.27
	c0.11,0.06,0.2,0.14,0.26,0.24l1.44,2.45c0.55,2.93,0.86,4.84,0.92,5.71c1.31,19.85,3.27,39.24,7.88,58.55
	c0.07,0.29,0.33,0.5,0.63,0.5l36.73,0.11l54.61-0.24l35.04,0.35c0.47,0.01,0.53-0.15,0.19-0.48l-13.9-13.17
	c-0.59-0.56-0.57-1.1,0.06-1.63l40.7-33.92c0.28-0.23,0.32-0.65,0.09-0.93c-0.06-0.08-0.15-0.14-0.24-0.18
	c-0.49-0.23-1.02-0.34-1.57-0.34c-8.54-0.03-16.05-0.18-22.52-0.46c-0.3-0.01-0.54-0.27-0.53-0.57c0-0.11,0.04-0.22,0.11-0.31
	c13.07-17.28,26.29-34.93,39.66-52.96c1.6-2.16,3.08-4.27,4.43-6.33c0.51-0.77,0.31-1.08-0.6-0.92l-3,0.53
	c0.07-1.11-0.13-3.05-0.62-5.84c-0.24-1.37,0.1-2.94,1.03-4.73c3.21-6.21,6.96-12.82,11.25-19.83c2.59-4.24,4.9-8.49,6.93-12.75
	c0.11-0.23,0.39-0.32,0.61-0.21c0.08,0.04,0.14,0.09,0.19,0.16c7.69,11.85,15.57,23.83,23.66,35.93c0.71,1.07,0.96,2.12,0.75,3.15
	l-1.24-1.44c-0.24-0.28-0.54-0.4-0.9-0.37c-2.75,0.23-5.46,0.16-8.15-0.21c-0.44-0.06-0.53,0.09-0.27,0.44
	c5.79,7.85,12.08,15.55,17.57,23.11c4.26,5.86,8.51,11.72,12.75,17.58c0.18,0.26,0.12,0.61-0.13,0.79c-0.1,0.07-0.22,0.11-0.34,0.11
	l-20.3-0.36c-0.79-0.01-0.9,0.26-0.33,0.81c8.33,8.11,16.35,15.94,24.06,23.49c1.38,1.36,2.48,3.04,3.83,4.46
	c0.59,0.62,0.46,0.86-0.38,0.72c-4.69-0.77-9.16-1.24-13.42-1.41c-1.19-0.05-1.35,0.34-0.48,1.15c9.93,9.35,19.98,18.61,30.13,27.76
	c1.43,1.29,2.78,2.57,4.04,3.86c1.27,1.29,1.03,1.7-0.71,1.21c-1.01-0.28-1.96-0.43-2.86-0.44c-6.02-0.1-12.22,0.13-17.97-0.9
	c-0.8-0.15-0.91,0.06-0.32,0.63c9.44,8.96,19.55,18.33,30.33,28.1c2.18,1.97,4.42,4.19,6.72,6.67c0.18,0.19,0.25,0.43,0.21,0.71
	c-0.04,0.29-0.29,0.51-0.58,0.51l-575.67,0.03c-0.35,0-0.64-0.29-0.64-0.65c0-0.13,0.04-0.26,0.12-0.37
	c0.32-0.45,0.68-0.86,1.07-1.24c8.63-8.23,17.27-16.18,25.9-23.86c3.44-3.06,6.56-6.44,10.07-9.44c0.56-0.47,0.47-0.69-0.26-0.66
	l-20.5,0.93c-0.77,0.04-0.87-0.2-0.29-0.72c4.07-3.61,8.06-7.67,12.2-11.19c7.73-6.59,15.4-13.49,22.99-20.7
	c0.83-0.79,0.67-1.13-0.47-1.04l-12.94,1.09c-0.74,0.06-0.84-0.17-0.31-0.68c2.25-2.16,4.14-4.51,6.36-6.69
	c7.21-7.09,14.46-14.14,21.74-21.13c0.58-0.55,0.47-0.82-0.34-0.81l-19.91,0.33c-0.17,0-0.3-0.13-0.3-0.3
	c0-0.06,0.02-0.12,0.05-0.17c7.27-10.65,14.76-20.97,22.47-30.97c2.57-3.35,4.82-6.86,7.46-10.25c0.08-0.09,0.07-0.23-0.03-0.31
	c-0.05-0.04-0.11-0.06-0.17-0.05l-8.28,0.8c-0.19,0.16-0.33,0.14-0.43-0.06c-0.1-0.21-0.1-0.41-0.01-0.62
	c0.94-2.05,1.99-3.97,3.15-5.76c6.81-10.49,13.66-20.86,20.55-31.09c0.33-0.5,0.65-0.49,0.94,0.04c6.04,10.77,12.07,21.1,18.1,30.99
	c1.02,1.67,2.28,3,3.42,4.53c0.19,0.26,0.14,0.62-0.12,0.81c-0.07,0.05-0.15,0.09-0.24,0.11c-0.77,0.15-1.62,0.11-2.56-0.13
	c-0.42-0.11-0.72,0.03-0.91,0.42c-0.24,0.47-0.2,0.92,0.11,1.34C120.29,411.12,120.83,412.31,120.97,413.43z"/>
<path class="st2" d="M404.05,525.79l-54.61,0.24c-16.61-17.16-30.63-36.15-42.07-56.97c-1.05-1.92-2.22-4.63-3.49-8.12
	c-0.09-0.25-0.24-0.29-0.44-0.12c-0.09,0.07-0.14,0.19-0.16,0.34l-1.44-2.45c-0.19-0.31-0.59-0.42-0.91-0.23
	c-0.1,0.06-0.19,0.15-0.24,0.26l-1.39,2.69c0.18-0.8-0.01-0.63-0.58,0.5c-7.07,14.08-15.39,27.39-24.94,39.92
	c-5.28,6.92-10.77,13.68-16.47,20.27c-0.75,0.87-2.21,2.08-4.37,3.62l-53.27-0.04l100.87-111.88c0.71-0.79,1.43-0.79,2.14,0
	c25.25,28.04,50.3,55.93,75.16,83.67c3.37,3.76,7.74,8.48,13.11,14.15C395.3,516.23,399.67,520.95,404.05,525.79z"/>
</svg>
